<svg width="13" height="16" viewBox="0 0 13 16" fill="none" xmlns="http://www.w3.org/2000/svg">
<path d="M12.543 9.45117L7.23047 14.7637C7.03125 14.9629 6.76562 15.0625 6.5 15.0625C6.20117 15.0625 5.93555 14.9629 5.73633 14.7637L0.423828 9.45117C-0.0078125 9.05273 -0.0078125 8.35547 0.423828 7.95703C0.822266 7.52539 1.51953 7.52539 1.91797 7.95703L5.4375 11.4434V1.25C5.4375 0.685547 5.90234 0.220703 6.4668 0.220703C6.99805 0.220703 7.5625 0.685547 7.5625 1.25V11.4434L11.0488 7.95703C11.4473 7.52539 12.1445 7.52539 12.543 7.95703C12.9746 8.35547 12.9746 9.05273 12.543 9.45117Z" fill="#FC5C65"/>
</svg>
