<svg width="28" height="32" viewBox="0 0 28 32" fill="none" xmlns="http://www.w3.org/2000/svg">
<path d="M28 29C28 30.6875 26.6875 32 25 32H3C1.375 32 0 30.6875 0 29V12H28V29ZM8 16.75C8 16.375 7.6875 16 7.25 16H4.75C4.375 16 4 16.375 4 16.75V19.25C4 19.6875 4.375 20 4.75 20H7.25C7.6875 20 8 19.6875 8 19.25V16.75ZM8 24.75C8 24.375 7.6875 24 7.25 24H4.75C4.375 24 4 24.375 4 24.75V27.25C4 27.6875 4.375 28 4.75 28H7.25C7.6875 28 8 27.6875 8 27.25V24.75ZM16 16.75C16 16.375 15.6875 16 15.25 16H12.75C12.375 16 12 16.375 12 16.75V19.25C12 19.6875 12.375 20 12.75 20H15.25C15.6875 20 16 19.6875 16 19.25V16.75ZM16 24.75C16 24.375 15.6875 24 15.25 24H12.75C12.375 24 12 24.375 12 24.75V27.25C12 27.6875 12.375 28 12.75 28H15.25C15.6875 28 16 27.6875 16 27.25V24.75ZM24 16.75C24 16.375 23.6875 16 23.25 16H20.75C20.375 16 20 16.375 20 16.75V19.25C20 19.6875 20.375 20 20.75 20H23.25C23.6875 20 24 19.6875 24 19.25V16.75ZM24 24.75C24 24.375 23.6875 24 23.25 24H20.75C20.375 24 20 24.375 20 24.75V27.25C20 27.6875 20.375 28 20.75 28H23.25C23.6875 28 24 27.6875 24 27.25V24.75ZM3 4H6V1C6 0.5 6.5 0 7 0H9C9.5625 0 10 0.5 10 1V4H18V1C18 0.5 18.5 0 19 0H21C21.5625 0 22 0.5 22 1V4H25C26.6875 4 28 5.375 28 7V10H0V7C0 5.375 1.375 4 3 4Z" fill="white"/>
</svg>
