<svg width="13" height="16" viewBox="0 0 13 16" fill="none" xmlns="http://www.w3.org/2000/svg">
<path d="M12.543 8.67383C12.3438 8.47461 12.0781 8.375 11.8125 8.375C11.5137 8.375 11.248 8.47461 11.0488 8.67383L7.5625 12.1602V2C7.5625 1.40234 7.06445 0.9375 6.5 0.9375C5.96875 0.9375 5.4375 1.40234 5.4375 2V12.1602L1.91797 8.67383C1.51953 8.24219 0.822266 8.24219 0.423828 8.67383C-0.0078125 9.07227 -0.0078125 9.76953 0.423828 10.168L5.73633 15.4805C6.13477 15.9121 6.83203 15.9121 7.23047 15.4805L12.543 10.168C12.9746 9.76953 12.9746 9.07227 12.543 8.67383Z" fill="white"/>
</svg>
