<svg width="22" height="22" viewBox="0 0 22 22" fill="none" xmlns="http://www.w3.org/2000/svg">
<path d="M21.1719 11.125C21.1719 5.54688 16.5781 0.953125 11 0.953125C5.38086 0.953125 0.828125 5.54688 0.828125 11.125C0.828125 16.7441 5.38086 21.2969 11 21.2969C16.5781 21.2969 21.1719 16.7441 21.1719 11.125ZM11 13.1758C12.0254 13.1758 12.8867 14.0371 12.8867 15.0625C12.8867 16.1289 12.0254 16.9492 11 16.9492C9.93359 16.9492 9.11328 16.1289 9.11328 15.0625C9.11328 14.0371 9.93359 13.1758 11 13.1758ZM9.19531 6.4082C9.1543 6.12109 9.40039 5.875 9.6875 5.875H12.2715C12.5586 5.875 12.8047 6.12109 12.7637 6.4082L12.4766 11.9863C12.4355 12.2734 12.2305 12.4375 11.9844 12.4375H9.97461C9.72852 12.4375 9.52344 12.2734 9.48242 11.9863L9.19531 6.4082Z" fill="#F7B731"/>
</svg>
